<?xml version="1.0" encoding="UTF-8" standalone="no"?>
<!DOCTYPE svg PUBLIC "-//W3C//DTD SVG 1.1//EN" "http://www.w3.org/Graphics/SVG/1.1/DTD/svg11.dtd">
<svg version="1.1" xmlns="http://www.w3.org/2000/svg" xmlns:xlink="http://www.w3.org/1999/xlink" preserveAspectRatio="xMidYMid meet" viewBox="0 0 640 640" width="640" height="640"><defs><path d="M633.33 7.09L633.33 13.01L10.72 13.01L10.72 7.09L633.33 7.09Z" id="ik0G6JebH"></path><path d="M10.72 316.09L10.72 111.63L633.33 111.63L633.33 316.09L10.72 316.09Z" id="b1MBfKdh7m"></path><path d="M8.09 318.72L8.09 109L635.96 109L635.96 318.72L8.09 318.72ZM13.35 313.46L630.7 313.46L630.7 114.25L13.35 114.25L13.35 313.46Z" id="cgoqJ4YMC"></path><path d="M10.72 315.43L10.72 213.53L633.33 213.53L633.33 315.43L10.72 315.43Z" id="bd4JdnQ7q"></path><path d="M453.84 91.24L449.24 80.72L422.29 80.72L417.03 91.24L390.73 91.24L417.68 33.39L453.19 33.39L480.14 91.24L453.84 91.24ZM447.93 71.52L436.09 41.94L423.6 71.52L447.93 71.52Z" id="bbYPPhXE"></path><path d="M264.5 90.59L264.5 32.73L290.14 32.73L290.14 90.59L264.5 90.59Z" id="a8uNP3lcH"></path><path d="M380.87 32.73L380.87 45.22L355.88 45.22L355.88 90.59L330.24 90.59L330.24 45.22L304.6 45.22L304.6 32.73L380.87 32.73Z" id="q2QttmcZs"></path><path d="M230.54 32.74L231.47 32.8L232.36 32.89L233.22 32.99L234.03 33.12L234.8 33.27L235.54 33.43L236.24 33.61L236.9 33.81L237.53 34.02L238.13 34.25L238.7 34.49L239.23 34.74L239.73 35L240.21 35.28L240.66 35.56L241.08 35.85L241.47 36.15L241.84 36.46L242.18 36.77L242.51 37.09L242.81 37.41L243.09 37.73L243.35 38.05L243.59 38.37L243.82 38.7L244.02 39.02L244.22 39.34L244.4 39.65L244.56 39.96L244.71 40.27L244.86 40.57L244.99 40.86L245.11 41.14L245.22 41.42L245.33 41.68L245.43 41.94L245.43 57.71L245.42 58.06L245.39 58.4L245.33 58.74L245.26 59.07L245.17 59.4L245.05 59.73L244.92 60.06L244.77 60.38L244.6 60.69L244.41 61L244.21 61.31L243.99 61.61L243.76 61.9L243.51 62.19L243.25 62.48L242.97 62.75L242.68 63.02L242.38 63.29L242.06 63.55L241.73 63.8L241.4 64.04L241.05 64.27L240.69 64.5L240.32 64.72L239.94 64.93L239.56 65.13L239.16 65.33L238.76 65.51L238.36 65.69L237.94 65.85L237.52 66.01L237.1 66.15L236.67 66.29L236.24 66.41L235.81 66.52L235.37 66.63L234.93 66.72L234.48 66.8L234.04 66.86L233.6 66.92L234.04 66.98L234.48 67.05L234.92 67.14L235.35 67.25L235.78 67.37L236.2 67.51L236.62 67.66L237.04 67.82L237.45 68L237.85 68.19L238.25 68.4L238.64 68.61L239.02 68.84L239.4 69.07L239.77 69.32L240.13 69.58L240.48 69.85L240.83 70.12L241.16 70.41L241.49 70.7L241.8 71L242.11 71.3L242.4 71.62L242.69 71.94L242.96 72.26L243.22 72.59L243.47 72.92L243.7 73.26L243.93 73.6L244.14 73.95L244.33 74.29L244.52 74.64L244.69 74.99L244.84 75.34L244.98 75.69L245.1 76.04L245.21 76.39L245.3 76.74L245.37 77.09L245.43 77.44L245.43 90.59L219.13 90.59L219.13 77.44L219.13 77.29L219.11 77.14L219.09 76.99L219.06 76.85L219.01 76.7L218.96 76.56L218.9 76.41L218.83 76.27L218.76 76.13L218.67 75.99L218.58 75.85L218.48 75.72L218.37 75.58L218.25 75.45L218.13 75.32L218 75.2L217.86 75.07L217.72 74.95L217.57 74.84L217.41 74.73L217.24 74.62L217.08 74.51L216.9 74.41L216.72 74.31L216.53 74.22L216.34 74.13L216.15 74.05L215.94 73.97L215.74 73.9L215.53 73.83L215.31 73.77L215.09 73.71L214.87 73.66L214.65 73.62L214.41 73.58L214.18 73.55L213.94 73.53L213.7 73.51L213.46 73.5L213.22 73.49L189.55 73.49L189.55 90.59L162.59 90.59L162.59 32.73L226.37 32.73L227.48 32.7L228.54 32.69L229.56 32.7L230.54 32.74ZM188.89 61.66L213.87 61.66L214.39 61.63L214.91 61.56L215.42 61.43L215.92 61.26L216.41 61.06L216.89 60.82L217.34 60.55L217.78 60.25L218.2 59.94L218.59 59.6L218.95 59.25L219.27 58.88L219.57 58.52L219.83 58.15L220.04 57.78L220.22 57.41L220.34 57.06L220.42 56.72L220.45 56.4L220.45 46.54L220.43 46.03L220.38 45.54L220.3 45.08L220.18 44.64L220.03 44.23L219.84 43.84L219.61 43.47L219.35 43.13L219.05 42.82L218.71 42.54L218.34 42.28L217.92 42.05L217.47 41.85L216.97 41.68L216.44 41.53L215.86 41.42L215.24 41.34L214.58 41.29L213.87 41.28L188.89 41.28L188.89 61.66Z" id="a2iokhWNaM"></path><path d="M334.84 194.46L329.59 183.94L302.63 183.94L297.37 194.46L271.07 194.46L298.69 137.27L333.53 136.61L361.14 194.46L334.84 194.46ZM328.93 174.08L316.44 145.15L303.94 174.08L328.93 174.08Z" id="bAgLaaqTi"></path><path d="M242.93 136.65L243.92 136.7L244.88 136.78L245.8 136.87L246.69 136.98L247.55 137.11L248.37 137.25L249.15 137.41L249.91 137.58L250.63 137.77L251.33 137.97L251.99 138.19L252.62 138.42L253.22 138.65L253.79 138.9L254.33 139.16L254.84 139.42L255.33 139.7L255.79 139.98L256.22 140.26L256.62 140.56L257 140.85L257.35 141.15L257.68 141.46L257.98 141.76L258.26 142.07L258.51 142.37L258.74 142.68L258.95 142.99L259.14 143.29L259.3 143.59L259.44 143.89L259.57 144.18L259.67 144.47L259.75 144.76L259.82 145.03L259.86 145.3L259.89 145.56L259.9 145.81L259.9 167.51L259.64 168.09L259.38 168.65L259.1 169.19L258.81 169.7L258.51 170.2L258.2 170.67L257.87 171.13L257.53 171.56L257.19 171.98L256.82 172.38L256.45 172.76L256.07 173.12L255.67 173.46L255.26 173.79L254.85 174.1L254.42 174.39L253.97 174.66L253.52 174.92L253.06 175.17L252.58 175.4L252.1 175.61L251.6 175.81L251.09 176L250.57 176.17L250.04 176.33L249.5 176.48L248.95 176.61L248.39 176.73L247.81 176.84L247.23 176.94L246.64 177.03L246.03 177.1L245.42 177.17L244.79 177.22L244.16 177.27L243.51 177.31L242.86 177.33L242.19 177.35L241.52 177.37L240.83 177.37L203.36 177.37L203.36 194.46L176.4 194.46L176.4 136.61L240.83 136.61L241.9 136.62L242.93 136.65ZM203.36 166.85L231.63 166.85L232.27 166.83L232.89 166.77L233.48 166.66L234.04 166.52L234.57 166.35L235.07 166.15L235.55 165.93L235.99 165.67L236.4 165.4L236.79 165.11L237.14 164.81L237.46 164.49L237.75 164.16L238.01 163.83L238.23 163.5L238.42 163.16L238.58 162.83L238.7 162.5L238.79 162.19L238.84 161.88L238.86 161.59L238.86 151.07L238.67 150.62L238.5 150.19L238.32 149.78L238.14 149.4L237.96 149.04L237.77 148.71L237.57 148.39L237.35 148.1L237.12 147.83L236.86 147.58L236.58 147.34L236.27 147.12L235.92 146.92L235.55 146.74L235.13 146.57L234.67 146.41L234.17 146.27L233.61 146.14L233.01 146.02L232.35 145.91L231.63 145.81L203.36 145.81L203.36 166.85Z" id="eyLexqIUo"></path><path d="M441.69 136.66L442.81 136.72L443.89 136.8L444.95 136.91L445.98 137.04L446.99 137.19L447.96 137.37L448.91 137.56L449.83 137.78L450.71 138.02L451.57 138.28L452.4 138.56L453.2 138.86L453.98 139.17L454.72 139.51L455.43 139.87L456.11 140.24L456.76 140.64L457.38 141.05L457.97 141.47L458.52 141.92L459.05 142.38L459.54 142.86L460.01 143.35L460.44 143.86L460.84 144.38L461.21 144.92L461.54 145.47L461.85 146.04L462.12 146.62L462.35 147.21L462.56 147.82L462.73 148.44L462.87 149.07L462.97 149.71L463.04 150.36L463.08 151.03L463.08 151.7L463.05 152.39L463.05 179.34L463.07 180.17L463.05 180.97L462.98 181.75L462.86 182.5L462.7 183.23L462.5 183.93L462.26 184.61L461.97 185.27L461.65 185.9L461.29 186.51L460.89 187.1L460.46 187.66L460 188.2L459.5 188.72L458.97 189.21L458.41 189.68L457.82 190.13L457.2 190.56L456.56 190.96L455.9 191.34L455.21 191.7L454.5 192.04L453.76 192.35L453.01 192.64L452.24 192.91L451.45 193.16L450.65 193.39L449.83 193.6L449 193.79L448.16 193.95L447.31 194.09L446.45 194.22L445.58 194.32L444.7 194.4L443.82 194.46L442.94 194.5L442.05 194.52L441.16 194.52L440.27 194.5L439.38 194.46L374.95 194.46L374.95 136.61L439.38 136.61L440.55 136.62L441.69 136.66ZM399.27 183.29L430.83 183.29L431.24 183.27L431.67 183.23L432.12 183.15L432.59 183.05L433.08 182.92L433.58 182.77L434.09 182.59L434.61 182.39L435.13 182.17L435.65 181.92L436.18 181.66L436.7 181.37L437.22 181.07L437.73 180.75L438.23 180.41L438.71 180.06L439.18 179.69L439.64 179.31L440.07 178.92L440.47 178.51L440.86 178.1L441.21 177.68L441.53 177.25L441.81 176.81L442.06 176.36L442.27 175.91L442.44 175.46L442.56 175L442.64 174.54L442.67 174.08L442.67 156.99L442.66 156.4L442.64 155.83L442.6 155.27L442.55 154.73L442.47 154.2L442.38 153.69L442.27 153.19L442.13 152.71L441.97 152.25L441.79 151.8L441.58 151.37L441.34 150.96L441.07 150.57L440.78 150.19L440.45 149.84L440.09 149.5L439.69 149.19L439.26 148.89L438.79 148.62L438.28 148.37L437.74 148.14L437.15 147.93L436.52 147.75L435.85 147.58L435.13 147.45L434.37 147.33L433.56 147.24L432.7 147.18L431.79 147.14L430.83 147.13L399.27 147.13L399.27 183.29Z" id="d7dSMnoYSn"></path><path d="M494.24 241.81L494.38 241.82L494.52 241.84L494.66 241.86L494.79 241.88L494.92 241.91L495.05 241.94L495.18 241.98L495.3 242.02L495.43 242.06L495.54 242.1L495.66 242.15L495.78 242.2L495.89 242.25L496 242.3L496.11 242.36L496.21 242.42L496.31 242.48L496.41 242.54L496.51 242.6L496.61 242.66L496.7 242.73L496.79 242.79L496.87 242.86L496.96 242.92L497.04 242.99L497.12 243.06L497.2 243.12L497.28 243.19L497.35 243.25L497.42 243.31L497.49 243.38L497.55 243.44L497.61 243.5L497.68 243.56L497.73 243.61L497.79 243.67L497.84 243.72L497.89 243.77L497.94 243.78L498 243.79L498.05 243.81L498.11 243.85L498.16 243.89L498.22 243.94L498.28 243.99L498.34 244.06L498.41 244.13L498.47 244.2L498.53 244.29L498.59 244.38L498.65 244.47L498.71 244.57L498.77 244.67L498.83 244.78L498.88 244.89L498.94 245.01L498.99 245.13L499.04 245.25L499.09 245.38L499.14 245.5L499.18 245.63L499.22 245.76L499.25 245.89L499.29 246.02L499.31 246.15L499.34 246.28L499.36 246.42L499.37 246.55L499.38 246.67L499.39 246.8L499.38 246.93L499.38 247.05L499.37 247.17L499.35 247.29L499.32 247.4L499.29 247.51L499.25 247.62L499.21 247.72L499.21 247.82L499.2 247.94L499.2 248.07L499.19 248.2L499.18 248.35L499.16 248.51L499.15 248.68L499.13 248.86L499.11 249.04L499.09 249.24L499.07 249.44L499.05 249.65L499.02 249.86L498.99 250.08L498.96 250.31L498.93 250.54L498.9 250.77L498.87 251.01L498.83 251.25L498.8 251.5L498.76 251.74L498.72 251.99L498.68 252.25L498.64 252.5L498.6 252.75L498.55 253L498.51 253.26L498.47 253.51L498.42 253.76L498.37 254L498.33 254.25L498.28 254.49L498.23 254.73L498.19 254.96L498.14 255.2L498.09 255.42L498.04 255.64L497.99 255.86L497.94 256.06L497.89 256.26L489.35 289.79L478.83 289.79L486.72 259.55L486.76 259.21L486.81 258.88L486.86 258.55L486.91 258.23L486.96 257.92L487.01 257.61L487.06 257.32L487.1 257.03L487.15 256.74L487.2 256.47L487.24 256.2L487.29 255.94L487.33 255.69L487.38 255.44L487.42 255.21L487.46 254.98L487.5 254.75L487.54 254.54L487.58 254.33L487.62 254.13L487.66 253.93L487.69 253.75L487.72 253.57L487.76 253.4L487.79 253.23L487.82 253.08L487.84 252.93L487.87 252.79L487.89 252.65L487.92 252.52L487.94 252.4L487.96 252.29L487.97 252.19L487.99 252.09L488 252L488.01 251.92L488.02 251.84L488.03 251.77L488.03 251.71L488.03 251.66L488.07 251.61L488.11 251.56L488.14 251.5L488.15 251.45L488.16 251.39L488.16 251.33L488.16 251.27L488.15 251.2L488.13 251.14L488.1 251.08L488.07 251.01L488.04 250.95L488 250.88L487.95 250.81L487.9 250.75L487.85 250.68L487.8 250.62L487.74 250.55L487.68 250.49L487.62 250.43L487.56 250.37L487.49 250.31L487.43 250.25L487.37 250.19L487.3 250.14L487.24 250.09L487.18 250.04L487.12 249.99L487.07 249.95L487.01 249.9L486.96 249.87L486.92 249.83L486.87 249.8L486.83 249.77L486.8 249.75L486.77 249.73L486.75 249.71L486.73 249.7L486.72 249.69L486.72 249.69L486.52 249.71L486.33 249.76L486.15 249.85L485.97 249.97L485.79 250.11L485.62 250.29L485.46 250.49L485.3 250.71L485.14 250.96L484.99 251.23L484.84 251.52L484.7 251.82L484.57 252.14L484.44 252.47L484.31 252.81L484.19 253.16L484.07 253.52L483.96 253.88L483.86 254.25L483.76 254.62L483.66 254.99L483.57 255.36L483.48 255.72L483.4 256.08L483.33 256.43L483.25 256.77L483.19 257.1L483.13 257.42L483.07 257.72L483.02 258.01L482.97 258.28L482.93 258.53L482.89 258.75L482.86 258.95L482.83 259.13L482.81 259.27L482.79 259.39L482.78 259.48L482.77 259.53L482.77 259.55L474.88 289.79L464.36 289.79L471.59 259.55L471.69 259.21L471.79 258.88L471.88 258.55L471.97 258.23L472.06 257.92L472.14 257.61L472.22 257.32L472.3 257.03L472.38 256.74L472.46 256.47L472.53 256.2L472.6 255.94L472.67 255.69L472.73 255.44L472.8 255.21L472.86 254.98L472.91 254.75L472.97 254.54L473.02 254.33L473.07 254.13L473.12 253.93L473.17 253.75L473.21 253.57L473.25 253.4L473.29 253.23L473.32 253.08L473.36 252.93L473.39 252.79L473.42 252.65L473.44 252.52L473.47 252.4L473.49 252.29L473.51 252.19L473.52 252.09L473.54 252L473.55 251.92L473.56 251.84L473.56 251.77L473.57 251.71L473.57 251.66L473.57 251.61L473.56 251.56L473.56 251.5L473.55 251.45L473.54 251.39L473.52 251.33L473.51 251.27L473.49 251.2L473.47 251.14L473.45 251.08L473.43 251.01L473.41 250.95L473.38 250.88L473.35 250.81L473.32 250.75L473.29 250.68L473.26 250.62L473.23 250.55L473.19 250.49L473.16 250.43L473.12 250.37L473.08 250.31L473.04 250.25L473 250.19L472.96 250.14L472.91 250.09L472.87 250.04L472.83 249.99L472.78 249.95L472.73 249.9L472.69 249.87L472.64 249.83L472.59 249.8L472.55 249.77L472.5 249.75L472.45 249.73L472.4 249.71L472.35 249.7L472.3 249.69L472.25 249.69L472.11 249.75L471.97 249.82L471.83 249.9L471.7 250L471.57 250.11L471.45 250.23L471.33 250.37L471.22 250.51L471.1 250.66L471 250.83L470.9 251L470.8 251.19L470.7 251.38L470.61 251.58L470.52 251.78L470.43 251.99L470.35 252.21L470.27 252.43L470.19 252.66L470.11 252.89L470.04 253.13L469.97 253.37L469.9 253.61L469.84 253.85L469.77 254.1L469.71 254.35L469.65 254.59L469.59 254.84L469.53 255.08L469.48 255.33L469.42 255.57L469.37 255.81L469.32 256.05L469.26 256.28L469.21 256.51L469.16 256.74L469.11 256.96L469.06 257.17L469.01 257.38L468.96 257.58L461.07 289.79L449.9 289.79L462.39 242.46L472.91 242.46L471.72 246.02L471.69 246.06L471.63 246.14L471.58 246.2L471.55 246.26L471.53 246.31L471.52 246.35L471.53 246.38L471.55 246.4L471.59 246.4L471.72 246.02L471.76 245.98L471.84 245.89L471.93 245.79L472.03 245.69L472.14 245.59L472.26 245.48L472.38 245.36L472.51 245.24L472.64 245.13L472.78 245L472.93 244.88L473.07 244.76L473.22 244.64L473.37 244.51L473.52 244.39L473.68 244.27L473.83 244.15L473.98 244.04L474.13 243.93L474.27 243.82L474.41 243.72L474.55 243.63L474.69 243.54L474.81 243.46L474.93 243.38L475.05 243.31L475.15 243.26L475.25 243.21L475.34 243.17L475.42 243.14L475.48 243.12L475.54 243.11L475.59 243.11L475.65 243.11L475.71 243.09L475.77 243.08L475.84 243.06L475.92 243.03L475.99 243.01L476.08 242.98L476.16 242.94L476.25 242.91L476.34 242.87L476.43 242.83L476.53 242.79L476.63 242.74L476.73 242.7L476.83 242.65L476.94 242.6L477.05 242.56L477.15 242.51L477.26 242.46L477.38 242.41L477.49 242.36L477.6 242.31L477.72 242.26L477.83 242.22L477.95 242.17L478.06 242.13L478.18 242.08L478.29 242.04L478.4 242.01L478.52 241.97L478.63 241.94L478.74 241.91L478.85 241.88L478.96 241.86L479.07 241.84L479.18 241.82L479.28 241.81L479.38 241.8L479.48 241.8L479.73 241.8L479.97 241.8L480.2 241.8L480.43 241.8L480.65 241.81L480.87 241.81L481.09 241.82L481.3 241.83L481.5 241.84L481.7 241.86L481.9 241.88L482.09 241.91L482.27 241.94L482.45 241.97L482.63 242.01L482.8 242.05L482.96 242.1L483.12 242.16L483.28 242.22L483.43 242.29L483.57 242.37L483.71 242.46L483.85 242.55L483.98 242.65L484.11 242.76L484.23 242.88L484.34 243.01L484.45 243.15L484.56 243.3L484.66 243.46L484.76 243.64L484.85 243.82L484.93 244.01L485.02 244.22L485.09 244.44L485.16 244.68L485.23 244.92L485.29 245.18L485.35 245.46L485.4 245.74L485.55 245.55L485.7 245.36L485.85 245.19L486.01 245.01L486.17 244.85L486.32 244.69L486.48 244.54L486.64 244.39L486.8 244.25L486.96 244.12L487.12 244L487.28 243.87L487.44 243.76L487.6 243.65L487.76 243.55L487.91 243.45L488.07 243.36L488.22 243.27L488.37 243.19L488.52 243.11L488.67 243.04L488.81 242.98L488.95 242.91L489.09 242.86L489.23 242.8L489.36 242.76L489.48 242.71L489.61 242.67L489.72 242.63L489.84 242.6L489.95 242.57L490.05 242.55L490.15 242.52L490.24 242.51L490.33 242.49L490.41 242.48L490.48 242.47L490.55 242.46L490.61 242.46L490.66 242.46L490.69 242.45L490.72 242.44L490.75 242.43L490.78 242.42L490.83 242.4L490.88 242.39L490.93 242.37L490.99 242.35L491.05 242.34L491.12 242.32L491.19 242.29L491.27 242.27L491.35 242.25L491.44 242.23L491.53 242.2L491.62 242.18L491.71 242.15L491.81 242.13L491.91 242.1L492.01 242.08L492.12 242.06L492.22 242.03L492.33 242.01L492.44 241.99L492.55 241.96L492.66 241.94L492.77 241.92L492.88 241.9L492.99 241.88L493.1 241.87L493.21 241.85L493.32 241.84L493.43 241.83L493.54 241.82L493.64 241.81L493.75 241.8L493.85 241.8L493.95 241.8L494.09 241.8L494.24 241.81Z" id="bA8fDozea"></path></defs><g><g><g><use xlink:href="#ik0G6JebH" opacity="1" fill="#00855a" fill-opacity="1"></use><g><use xlink:href="#ik0G6JebH" opacity="1" fill-opacity="0" stroke="#000000" stroke-width="1" stroke-opacity="0"></use></g></g><g><use xlink:href="#b1MBfKdh7m" opacity="1" fill="#969798" fill-opacity="1"></use><g><use xlink:href="#b1MBfKdh7m" opacity="1" fill-opacity="0" stroke="#000000" stroke-width="1" stroke-opacity="0"></use></g></g><g><use xlink:href="#cgoqJ4YMC" opacity="1" fill="#00855a" fill-opacity="1"></use><g><use xlink:href="#cgoqJ4YMC" opacity="1" fill-opacity="0" stroke="#000000" stroke-width="1" stroke-opacity="0"></use></g></g><g><use xlink:href="#bd4JdnQ7q" opacity="1" fill="#00855a" fill-opacity="1"></use><g><use xlink:href="#bd4JdnQ7q" opacity="1" fill-opacity="0" stroke="#000000" stroke-width="1" stroke-opacity="0"></use></g></g><g><use xlink:href="#bbYPPhXE" opacity="1" fill="#00855a" fill-opacity="1"></use><g><use xlink:href="#bbYPPhXE" opacity="1" fill-opacity="0" stroke="#000000" stroke-width="1" stroke-opacity="0"></use></g></g><g><use xlink:href="#a8uNP3lcH" opacity="1" fill="#00855a" fill-opacity="1"></use><g><use xlink:href="#a8uNP3lcH" opacity="1" fill-opacity="0" stroke="#000000" stroke-width="1" stroke-opacity="0"></use></g></g><g><use xlink:href="#q2QttmcZs" opacity="1" fill="#00855a" fill-opacity="1"></use><g><use xlink:href="#q2QttmcZs" opacity="1" fill-opacity="0" stroke="#000000" stroke-width="1" stroke-opacity="0"></use></g></g><g><use xlink:href="#a2iokhWNaM" opacity="1" fill="#00855a" fill-opacity="1"></use><g><use xlink:href="#a2iokhWNaM" opacity="1" fill-opacity="0" stroke="#000000" stroke-width="1" stroke-opacity="0"></use></g></g><g><use xlink:href="#bAgLaaqTi" opacity="1" fill="#00855a" fill-opacity="1"></use><g><use xlink:href="#bAgLaaqTi" opacity="1" fill-opacity="0" stroke="#000000" stroke-width="1" stroke-opacity="0"></use></g></g><g><use xlink:href="#eyLexqIUo" opacity="1" fill="#00855a" fill-opacity="1"></use><g><use xlink:href="#eyLexqIUo" opacity="1" fill-opacity="0" stroke="#000000" stroke-width="1" stroke-opacity="0"></use></g></g><g><use xlink:href="#d7dSMnoYSn" opacity="1" fill="#00855a" fill-opacity="1"></use><g><use xlink:href="#d7dSMnoYSn" opacity="1" fill-opacity="0" stroke="#000000" stroke-width="1" stroke-opacity="0"></use></g></g><g><use xlink:href="#bA8fDozea" opacity="1" fill="#ffffff" fill-opacity="1"></use><g><use xlink:href="#bA8fDozea" opacity="1" fill-opacity="0" stroke="#000000" stroke-width="1" stroke-opacity="0"></use></g></g></g></g></svg>